<svg xmlns="http://www.w3.org/2000/svg" viewBox="-12 -4 64 64" shape-rendering="crispEdges"><defs><linearGradient id="g" x1="0" y1="16" x2="0" y2="55" gradientUnits="userSpaceOnUse"><stop offset="0" stop-color="#F7DE96"/><stop offset=".55" stop-color="#E2B24A"/><stop offset="1" stop-color="#B8842A"/></linearGradient></defs><rect x="-8" y="-4" width="56" height="64" fill="#000"/><g fill="url(#g)"><rect x="0" y="16" width="7" height="7"/><rect x="32" y="16" width="7" height="7"/><rect x="0" y="24" width="7" height="7"/><rect x="8" y="24" width="7" height="7"/><rect x="32" y="24" width="7" height="7"/><rect x="0" y="32" width="7" height="7"/><rect x="16" y="32" width="7" height="7"/><rect x="32" y="32" width="7" height="7"/><rect x="0" y="40" width="7" height="7"/><rect x="24" y="40" width="7" height="7"/><rect x="32" y="40" width="7" height="7"/><rect x="0" y="48" width="7" height="7"/><rect x="32" y="48" width="7" height="7"/></g><rect x="32" y="0" width="7" height="7" fill="#F4B9B0"/></svg>
